<?xml version="1.0" encoding="UTF-8" standalone="no"?>
<!-- Created with Inkscape (http://www.inkscape.org/) -->

<svg
   version="1.1"
   id="svg1"
   width="42"
   height="120"
   viewBox="0 0 42 120"
   xml:space="preserve"
   xmlns="http://www.w3.org/2000/svg"
   xmlns:svg="http://www.w3.org/2000/svg"><defs
     id="defs1" /><rect
     style="fill:#000000;fill-opacity:0;stroke-width:0.875384;stroke-linecap:round;stroke-linejoin:round"
     id="rect11"
     width="42"
     height="40"
     x="0"
     y="0" /><rect
     style="fill:#000000;fill-opacity:0.4;stroke-width:0.875384;stroke-linecap:round;stroke-linejoin:round"
     id="rect38"
     width="42"
     height="40"
     x="0"
     y="40" /><rect
     style="fill:#000000;fill-opacity:0.6;stroke-width:0.875384;stroke-linecap:round;stroke-linejoin:round"
     id="rect13"
     width="42"
     height="40"
     x="0"
     y="80" /><g
     id="g84"
     transform="translate(0.2559999,0.256)"><path
       d="M 31.494,60.938032 H 26.716016 21.938031 V 65.716016 70.494 h 4.41959 4.419588 L 31.135604,70.135604 31.494,69.77721 v -4.419589 z"
       style="fill:#ffc300;fill-opacity:1;stroke-width:0.950769"
       id="path61" /><path
       d="M 19.549968,70.494 V 65.716016 60.938032 H 14.771984 9.9940002 v 4.419589 4.419589 l 0.3602528,0.358394 0.356538,0.358396 h 4.419588 z"
       style="fill:#00b4f1;fill-opacity:1;stroke-width:0.950769"
       id="path60" /><path
       d="m 21.938031,48.994 v 4.777984 4.777985 H 26.716016 31.494 v -4.41959 -4.419588 L 31.135604,49.352395 30.777209,48.994 h -4.419588 z"
       style="fill:#91c300;fill-opacity:1;stroke-width:0.950769"
       id="path58" /><path
       d="m 10.710791,48.994 -0.356538,0.358395 -0.3602528,0.358396 v 4.419588 4.41959 h 4.7779838 4.777984 V 53.771984 48.994 h -4.419589 z"
       style="fill:#f8682c;fill-opacity:1;stroke-width:0.950769"
       id="path55" /></g><path
     d="M 10.967021,9.2500009 10.608813,9.608208 10.25,9.9670211 v 4.4190989 4.419706 h 4.777912 4.777912 V 14.027913 9.2500009 h -4.419703 z"
     style="fill:#29a1e5;fill-opacity:1;stroke-width:0.155163"
     id="path51" /><path
     d="m 22.194477,9.2500009 v 4.7779121 4.777913 H 26.97239 31.75 V 14.38612 9.9670211 L 31.391791,9.608208 31.033585,9.2500009 h -4.419402 z"
     style="fill:#1fbbf1;fill-opacity:1;stroke-width:0.155163"
     id="path52" /><path
     d="m 31.75,21.194478 h -4.77761 -4.777913 v 4.777913 4.777608 h 4.419706 4.419402 L 31.391791,30.391793 31.75,30.033585 V 25.61388 Z"
     style="fill:#2aa1e6;fill-opacity:1;stroke-width:0.155163"
     id="path53" /><path
     d="M 19.805824,30.749999 V 25.972391 21.194478 H 15.027912 10.25 v 4.419402 4.419705 l 0.358813,0.358208 0.358208,0.358206 h 4.4191 z"
     style="fill:#00b4f1;fill-opacity:1;stroke-width:0.155163"
     id="path54" /><path
     d="M 31.7932,101.115 H 26.9041 22.015 v 4.8891 4.8891 h 4.52237 4.522369 l 0.36673,-0.36673 0.366731,-0.36673 v -4.52237 z"
     style="fill:#ffc300;fill-opacity:1;stroke-width:0.97288"
     id="path75" /><path
     d="m 19.271201,110.8932 v -4.8891 -4.8891 H 14.3821 9.493 v 4.52237 4.52237 l 0.368631,0.36673 0.36483,0.36673 h 4.522369 z"
     style="fill:#00b4f1;fill-opacity:1;stroke-width:0.97288"
     id="path76" /><path
     d="m 22.115,88.493 v 4.8891 4.889101 h 4.8891 4.8891 V 93.74883 89.226461 L 31.526469,88.85973 31.159739,88.493 H 26.63737 Z"
     style="fill:#91c300;fill-opacity:1;stroke-width:0.97288"
     id="path78" /><path
     d="M 10.226461,88.493 9.8616306,88.85973 9.493,89.226461 v 4.522369 4.522371 h 4.8891 4.889101 V 93.3821 88.493 H 14.74883 Z"
     style="fill:#f8682c;fill-opacity:1;stroke-width:0.97288"
     id="path81" /></svg>
