<?xml version="1.0" encoding="UTF-8" standalone="no"?>
<!-- Created with Inkscape (http://www.inkscape.org/) -->

<svg
   version="1.1"
   id="svg1"
   width="799.89764"
   height="800"
   viewBox="0 0 799.89764 800"
   xml:space="preserve"
   xmlns="http://www.w3.org/2000/svg"
   xmlns:svg="http://www.w3.org/2000/svg"><defs
     id="defs1" /><g
     id="g100"
     transform="matrix(35.872329,0,0,35.872329,-353.37831,-1752.3274)"
     style="fill:#000000;fill-opacity:1"><path
       d="m 9.851047,60.580228 v 7.498047 c 3.011998,0.406413 6.022844,0.796242 9.029297,1.240234 0.006,-2.901144 -0.002,-5.803823 -0.002,-8.705078 -3.009777,0.01105 -6.017566,-0.04317 -9.027344,-0.0332 z"
       style="fill:#000000;fill-opacity:1;fill-rule:evenodd;stroke-width:1.105"
       id="path97" /><path
       d="m 20.157,60.58 c 0.006,2.20876 0.01207,5.96228 0.01758,8.878906 3.993475,0.540115 7.985839,1.096146 11.972656,1.691406 0,-3.48216 0.005,-6.948516 0,-10.261719 -3.996787,0 -7.99123,-0.308592 -11.990234,-0.308593 z"
       style="fill:#000000;fill-opacity:1;fill-rule:evenodd;stroke-width:1.105"
       id="path98" /><path
       d="m 32.147156,48.849 c -3.993465,0.553266 -7.986936,1.125859 -11.972656,1.734375 -0.002,2.939939 -0.002,5.878279 0,8.820312 3.993401,-0.01212 7.983427,-0.07244 11.974609,-0.08789 -0.002,-3.489846 4.7e-5,-6.976941 -0.002,-10.466797 z"
       style="fill:#000000;fill-opacity:1;fill-rule:evenodd;stroke-width:1.105"
       id="path99" /><path
       d="M 18.880297,50.754 C 15.866732,51.130601 12.852391,51.53085 9.851,51.992281 v 7.476562 c 3.011988,0.01105 6.023157,-0.03652 9.035156,-0.0332 -0.002,-2.894514 -0.0019,-5.787015 -0.0059,-8.68164 z"
       style="fill:#000000;fill-opacity:1;fill-rule:evenodd;stroke-width:1.105"
       id="path100" /></g></svg>
