<?xml version="1.0" encoding="UTF-8" standalone="no"?>
<!-- Created with Inkscape (http://www.inkscape.org/) -->

<svg
   version="1.1"
   id="svg1"
   width="42"
   height="120"
   viewBox="0 0 42 120"
   xml:space="preserve"
   xmlns="http://www.w3.org/2000/svg"
   xmlns:svg="http://www.w3.org/2000/svg"><defs
     id="defs1" /><rect
     style="fill:#000000;fill-opacity:0;stroke-width:0.875384;stroke-linecap:round;stroke-linejoin:round"
     id="rect11"
     width="42"
     height="40"
     x="0"
     y="0" /><rect
     style="fill:#000000;fill-opacity:0.4;stroke-width:0.875384;stroke-linecap:round;stroke-linejoin:round"
     id="rect38"
     width="42"
     height="40"
     x="0"
     y="40" /><rect
     style="fill:#000000;fill-opacity:0.6;stroke-width:0.875384;stroke-linecap:round;stroke-linejoin:round"
     id="rect13"
     width="42"
     height="40"
     x="0"
     y="80" /><g
     id="g92"
     transform="matrix(0.96419222,0,0,0.96419222,0.75174247,2.1487985)"><path
       d="m 9.851047,60.580228 v 7.498047 c 3.011998,0.406413 6.022844,0.796242 9.029297,1.240234 0.006,-2.901144 -0.002,-5.803823 -0.002,-8.705078 -3.009777,0.01105 -6.017566,-0.04317 -9.027344,-0.0332 z"
       style="fill:#00b4f1;fill-opacity:1;fill-rule:evenodd;stroke-width:1.105"
       id="path88" /><path
       d="m 20.157,60.58 c 0.006,2.20876 0.01207,5.96228 0.01758,8.878906 3.993475,0.540115 7.985839,1.096146 11.972656,1.691406 0,-3.48216 0.005,-6.948516 0,-10.261719 -3.996787,0 -7.99123,-0.308592 -11.990234,-0.308593 z"
       style="fill:#ffc300;fill-opacity:1;fill-rule:evenodd;stroke-width:1.105"
       id="path87" /><path
       d="m 32.147156,48.849 c -3.993465,0.553266 -7.986936,1.125859 -11.972656,1.734375 -0.002,2.939939 -0.002,5.878279 0,8.820312 3.993401,-0.01212 7.983427,-0.07244 11.974609,-0.08789 -0.002,-3.489846 4.7e-5,-6.976941 -0.002,-10.466797 z"
       style="fill:#91c300;fill-opacity:1;fill-rule:evenodd;stroke-width:1.105"
       id="path86" /><path
       d="M 18.880297,50.754 C 15.866732,51.130601 12.852391,51.53085 9.851,51.992281 v 7.476562 c 3.011988,0.01105 6.023157,-0.03652 9.035156,-0.0332 -0.002,-2.894514 -0.0019,-5.787015 -0.0059,-8.68164 z"
       style="fill:#f8682c;fill-opacity:1;fill-rule:evenodd;stroke-width:1.105"
       id="path85" /></g><g
     id="g93"
     transform="matrix(0.99125675,0,0,0.99125675,0.18338114,0.92422982)"><path
       d="m 9.651047,100.78024 v 7.49805 c 3.011998,0.40641 6.022844,0.79624 9.029297,1.24023 0.006,-2.90114 -0.002,-5.80382 -0.002,-8.70508 -3.009777,0.011 -6.017566,-0.0432 -9.027344,-0.0332 z"
       style="fill:#00b4f1;fill-opacity:1;fill-rule:evenodd;stroke-width:1.105"
       id="path89" /><path
       d="m 20.357,100.78 c 0.006,2.20876 0.01207,5.96228 0.01758,8.87891 3.993475,0.54011 7.985839,1.09614 11.972656,1.6914 0,-3.48216 0.005,-6.94851 0,-10.26172 -3.996787,0 -7.99123,-0.30859 -11.990234,-0.30859 z"
       style="fill:#ffc300;fill-opacity:1;fill-rule:evenodd;stroke-width:1.105"
       id="path90" /><path
       d="m 32.347156,88.549 c -3.993465,0.553266 -7.986936,1.125859 -11.972656,1.734375 -0.002,2.939939 -0.002,5.878279 0,8.820312 3.993401,-0.01212 7.983427,-0.07244 11.974609,-0.08789 -0.002,-3.489846 4.7e-5,-6.976941 -0.002,-10.466797 z"
       style="fill:#91c300;fill-opacity:1;fill-rule:evenodd;stroke-width:1.105"
       id="path91" /><path
       d="M 18.680297,90.554 C 15.666732,90.930601 12.652391,91.33085 9.651,91.792281 v 7.476562 c 3.011988,0.01105 6.023157,-0.03652 9.035156,-0.0332 -0.002,-2.894514 -0.0019,-5.787015 -0.0059,-8.68164 z"
       style="fill:#f8682c;fill-opacity:1;fill-rule:evenodd;stroke-width:1.105"
       id="path92" /></g><g
     id="g96"
     transform="matrix(0.96419222,0,0,0.96419222,0.75174247,-37.851202)"
     style="fill:#ffffff;fill-opacity:1"><path
       d="m 9.851047,60.580228 v 7.498047 c 3.011998,0.406413 6.022844,0.796242 9.029297,1.240234 0.006,-2.901144 -0.002,-5.803823 -0.002,-8.705078 -3.009777,0.01105 -6.017566,-0.04317 -9.027344,-0.0332 z"
       style="fill:#ffffff;fill-opacity:1;fill-rule:evenodd;stroke-width:1.105"
       id="path93" /><path
       d="m 20.157,60.58 c 0.006,2.20876 0.01207,5.96228 0.01758,8.878906 3.993475,0.540115 7.985839,1.096146 11.972656,1.691406 0,-3.48216 0.005,-6.948516 0,-10.261719 -3.996787,0 -7.99123,-0.308592 -11.990234,-0.308593 z"
       style="fill:#ffffff;fill-opacity:1;fill-rule:evenodd;stroke-width:1.105"
       id="path94" /><path
       d="m 32.147156,48.849 c -3.993465,0.553266 -7.986936,1.125859 -11.972656,1.734375 -0.002,2.939939 -0.002,5.878279 0,8.820312 3.993401,-0.01212 7.983427,-0.07244 11.974609,-0.08789 -0.002,-3.489846 4.7e-5,-6.976941 -0.002,-10.466797 z"
       style="fill:#ffffff;fill-opacity:1;fill-rule:evenodd;stroke-width:1.105"
       id="path95" /><path
       d="M 18.880297,50.754 C 15.866732,51.130601 12.852391,51.53085 9.851,51.992281 v 7.476562 c 3.011988,0.01105 6.023157,-0.03652 9.035156,-0.0332 -0.002,-2.894514 -0.0019,-5.787015 -0.0059,-8.68164 z"
       style="fill:#ffffff;fill-opacity:1;fill-rule:evenodd;stroke-width:1.105"
       id="path96" /></g></svg>
