<?xml version="1.0" encoding="UTF-8" standalone="no"?>
<svg
   version="1.2"
   viewBox="0 0 800 800"
   width="800"
   height="800"
   id="svg1"
   sodipodi:docname="canva.svg"
   inkscape:version="1.4.4 (dcaf3e7d9e, 2026-05-05)"
   xmlns:inkscape="http://www.inkscape.org/namespaces/inkscape"
   xmlns:sodipodi="http://sodipodi.sourceforge.net/DTD/sodipodi-0.dtd"
   xmlns="http://www.w3.org/2000/svg"
   xmlns:svg="http://www.w3.org/2000/svg">
  <defs
     id="defs1" />
  <sodipodi:namedview
     id="namedview1"
     pagecolor="#505050"
     bordercolor="#ffffff"
     borderopacity="1"
     inkscape:showpageshadow="0"
     inkscape:pageopacity="0"
     inkscape:pagecheckerboard="1"
     inkscape:deskcolor="#505050"
     inkscape:zoom="0.64375"
     inkscape:cx="400"
     inkscape:cy="400"
     inkscape:window-width="1352"
     inkscape:window-height="734"
     inkscape:window-x="0"
     inkscape:window-y="0"
     inkscape:window-maximized="1"
     inkscape:current-layer="svg1" />
  <style
     id="style1">.a{fill:none;stroke:#000;stroke-linejoin:round;stroke-width:50}</style>
  <path
     class="a"
     d="m396.7 708.3c-48.4 0-91.7-12.9-128.8-37.9-36.6-25-64.1-60.8-82.1-106.6-10.4-26.7-16.6-55.9-19.5-89.2-3.4-39.6-0.9-80 7.9-119.6 13.7-63.7 41.6-118.7 82.5-164.6 40.4-45 88.3-75.4 142.9-89.6 23.3-6.2 46.7-9.1 68.7-9.1 26.7 0 53 4.6 78 13.7 37 13.8 62.5 37.5 74.5 70.9 5.9 15.4 7.5 31.6 5.9 50-2.5 25.8-10.9 48.7-25 68.3-16.3 22.5-35.9 36.2-59.6 42.1-4.2 1.2-8.8 1.6-13.8 1.6-2 0-3.7 0-5.8-0.4-7.1-0.8-13.3-3.7-17.5-9.1-4.2-5.5-5.8-12.5-5-19.6 1.2-8.4 4.6-15.4 7.9-21.3l1.3-2.5c6.6-13.3 12.9-25.8 16.2-39.1 5.4-22.5 5.4-39.6-0.4-55.5-6.2-16.6-17.9-27-35.4-31.2q-10-2.5-20-2.5-22.5 0-47.5 11.2c-32.9 15-60.8 40-84.6 76.3-16.2 25-28.7 52.9-37.9 85.4-6.7 23.3-10.8 47.9-13.3 73.3-1.3 12.1-2.1 26.3-2.1 40 0.4 40.5 6.2 72.5 18.7 100.9 13.8 31.6 32.5 53.7 57.9 67.9 17.1 9.6 36.3 14.6 56.7 14.6 3.3 0 7.1 0 10.8-0.4 43.4-3.4 81.7-23 116.7-59.6 17.9-18.8 32.9-40.4 45.8-66.3 2.1-3.7 4.2-7.9 7.5-11.2 4.2-4.6 9.6-7.1 15.5-7.1 7 0 13.3 3.7 17.4 10.4 5.1 8.3 4.6 17.5 3.8 23.3-2.5 17.1-8.7 33.8-19.2 53.4-30 53.7-71.2 93.3-122.5 117.9-26.2 12.5-54.5 19.6-83.7 20.8-4.6 0.4-8.8 0.4-12.9 0.4z"
     id="path1"
     style="stroke:#d2d7e2;stroke-opacity:1" />
</svg>
